<?xml version="1.0" encoding="UTF-8"?>
<svg version="1.1" xmlns="http://www.w3.org/2000/svg" width="640" height="640">
<path d="M0 0 C1.02409973 -0.00705963 2.04819946 -0.01411926 3.10333252 -0.02139282 C45.81179953 -0.24899128 45.81179953 -0.24899128 64.90234375 3.203125 C66.03720215 3.40180176 67.17206055 3.60047852 68.34130859 3.80517578 C128.22428255 14.54308985 183.58446001 41.07124754 228.5703125 82.08984375 C230.65269111 83.97689037 232.76737439 85.81370733 234.90234375 87.640625 C259.4986708 109.10651042 279.29529818 136.7189402 294.90234375 165.203125 C295.33530762 165.9854248 295.76827148 166.76772461 296.21435547 167.57373047 C319.25799905 209.38921947 333.88448755 258.37769554 334.10546875 306.30078125 C334.11252838 307.32488098 334.11958801 308.34898071 334.12686157 309.40411377 C334.35446003 352.11258078 334.35446003 352.11258078 330.90234375 371.203125 C330.70366699 372.3379834 330.50499023 373.4728418 330.30029297 374.64208984 C319.5623789 434.5250638 293.03422121 489.88524126 252.015625 534.87109375 C250.12857838 536.95347236 248.29176142 539.06815564 246.46484375 541.203125 C224.99895833 565.79945205 197.38652855 585.59607943 168.90234375 601.203125 C167.72889404 601.8525708 167.72889404 601.8525708 166.53173828 602.51513672 C124.71624928 625.5587803 75.72777321 640.1852688 27.8046875 640.40625 C26.78058777 640.41330963 25.75648804 640.42036926 24.70135498 640.42764282 C-18.00711203 640.65524128 -18.00711203 640.65524128 -37.09765625 637.203125 C-38.23251465 637.00444824 -39.36737305 636.80577148 -40.53662109 636.60107422 C-100.41959505 625.86316015 -155.77977251 599.33500246 -200.765625 558.31640625 C-202.84800361 556.42935963 -204.96268689 554.59254267 -207.09765625 552.765625 C-231.6939833 531.29973958 -251.49061068 503.6873098 -267.09765625 475.203125 C-267.74710205 474.02967529 -267.74710205 474.02967529 -268.40966797 472.83251953 C-291.45331155 431.01703053 -306.07980005 382.02855446 -306.30078125 334.10546875 C-306.30784088 333.08136902 -306.31490051 332.05726929 -306.32217407 331.00213623 C-306.54977253 288.29366922 -306.54977253 288.29366922 -303.09765625 269.203125 C-302.89897949 268.0682666 -302.70030273 266.9334082 -302.49560547 265.76416016 C-291.7576914 205.8811862 -265.22953371 150.52100874 -224.2109375 105.53515625 C-222.32389088 103.45277764 -220.48707392 101.33809436 -218.66015625 99.203125 C-197.19427083 74.60679795 -169.58184105 54.81017057 -141.09765625 39.203125 C-140.31535645 38.77016113 -139.53305664 38.33719727 -138.72705078 37.89111328 C-96.91156178 14.8474697 -47.92308571 0.2209812 0 0 Z " fill="#0052FF" transform="translate(306.09765625,-0.203125)"/>
<path d="M0 0 C4.10471618 3.56490324 8.07573579 7.24044031 12 11 C12.58394531 11.55139648 13.16789062 12.10279297 13.76953125 12.67089844 C23.6370284 22.02424705 32.09230147 31.94891811 40 43 C40.43618652 43.59683594 40.87237305 44.19367188 41.32177734 44.80859375 C53.89194458 62.09808694 63.41998294 81.70584211 70 102 C70.57621094 103.71316406 70.57621094 103.71316406 71.1640625 105.4609375 C81.42701981 137.18992766 84.92772441 173.01238113 79 206 C78.79866455 207.15266357 78.79866455 207.15266357 78.59326172 208.32861328 C72.545662 242.45100593 60.5328384 274.83241606 40 303 C39.59571777 303.5583252 39.19143555 304.11665039 38.77490234 304.69189453 C32.73234462 312.96658217 26.0881689 320.60452123 19 328 C18.44715332 328.58539551 17.89430664 329.17079102 17.32470703 329.77392578 C7.97571509 339.63696949 -1.94300449 348.10855789 -13 356 C-13.61810547 356.44682129 -14.23621094 356.89364258 -14.87304688 357.35400391 C-42.28219558 377.01805929 -75.25461189 390.03276737 -108.64379883 394.65161133 C-110.37749628 394.9079564 -112.10608462 395.19946727 -113.83081055 395.51049805 C-122.84960939 397.07992704 -131.69129921 397.35884077 -140.8125 397.3125 C-141.57834412 397.31034485 -142.34418823 397.3081897 -143.13323975 397.30596924 C-201.31879149 397.04460034 -255.96738115 375.26847609 -298 335 C-298.58394531 334.44860352 -299.16789062 333.89720703 -299.76953125 333.32910156 C-309.63407455 323.97855288 -318.10729812 314.05876061 -326 303 C-326.67023193 302.0728418 -326.67023193 302.0728418 -327.35400391 301.12695312 C-348.72024597 271.34517645 -360.44899196 236.9409748 -366 201 C-366.10602539 200.31848877 -366.21205078 199.63697754 -366.32128906 198.93481445 C-373.3176156 146.34325235 -358.58715066 89.03540965 -328 46 C-327.25234375 44.94039063 -326.5046875 43.88078125 -325.734375 42.7890625 C-312.45582111 24.59075663 -296.88226241 7.62124125 -278.70019531 -5.74853516 C-277.00363496 -6.99732441 -275.32604025 -8.26887103 -273.6484375 -9.54296875 C-264.61318867 -16.30341782 -254.99831349 -21.79482803 -245 -27 C-244.33194336 -27.35304199 -243.66388672 -27.70608398 -242.97558594 -28.06982422 C-224.7603607 -37.58748443 -204.230178 -44.37302133 -184 -48 C-183.20932129 -48.14663086 -182.41864258 -48.29326172 -181.60400391 -48.44433594 C-118.27127291 -59.70833284 -48.99527952 -41.85013459 0 0 Z " fill="#FEFEFF" transform="translate(463,147)"/>
<path d="M0 0 C1.80102173 -0.01051392 1.80102173 -0.01051392 3.63842773 -0.02124023 C6.919582 -0.03579754 10.20008754 -0.03242994 13.48123169 -0.01972389 C16.921746 -0.00956688 20.36221828 -0.01899704 23.80273438 -0.02526855 C29.57950574 -0.03253716 35.35607227 -0.02297813 41.1328125 -0.00390625 C47.80287848 0.01786123 54.47245533 0.01080928 61.14250946 -0.01121187 C66.8786003 -0.02938852 72.61454425 -0.03191322 78.3506546 -0.0214572 C81.77250684 -0.0152346 85.19412949 -0.01435227 88.6159668 -0.02760315 C92.43181426 -0.03776132 96.24672249 -0.02227556 100.0625 0 C101.19099365 -0.00809692 102.3194873 -0.01619385 103.48217773 -0.02453613 C109.46595724 0.04017836 113.46071582 0.23805424 118.03125 4.51757812 C123.07100111 9.91009508 122.59327915 15.41200046 122.53295898 22.39453125 C122.54106346 24.18092262 122.54106346 24.18092262 122.54933167 26.00340271 C122.55967316 29.25771466 122.55214294 32.51136239 122.53562045 35.76563072 C122.521729 39.17810821 122.52823468 42.59055616 122.53175354 46.00305176 C122.53445245 51.73275262 122.52100778 57.46224362 122.49780273 63.19189453 C122.47119484 69.80736715 122.469447 76.42248898 122.4811911 83.03799677 C122.49198664 89.41322962 122.48576793 95.78833612 122.47163582 102.16355896 C122.46589136 104.8715668 122.4659465 107.5794817 122.47070122 110.28749084 C122.47361172 114.07208396 122.45711272 117.85610426 122.43530273 121.640625 C122.44205521 123.31933937 122.44205521 123.31933937 122.44894409 125.03196716 C122.39574896 130.58808631 122.2571849 134.76624372 119.03125 139.51757812 C114.81036679 143.42189509 111.72026457 144.63767797 106.04130554 144.66474915 C104.49571457 144.6754821 104.49571457 144.6754821 102.91889954 144.68643188 C101.22400642 144.69046524 101.22400642 144.69046524 99.49487305 144.69458008 C98.30438354 144.70115128 97.11389404 144.70772247 95.8873291 144.7144928 C91.93921551 144.73423868 87.99111521 144.74589241 84.04296875 144.75585938 C82.68259982 144.75990777 81.32223109 144.76402471 79.96186256 144.76820946 C73.57065062 144.78725519 67.17945019 144.80148787 60.78821534 144.80982143 C53.41563394 144.8195939 46.04335277 144.8459159 38.67087716 144.88632232 C32.96885669 144.91649898 27.26692221 144.93129173 21.56482345 144.93460244 C18.16075773 144.93695106 14.75701298 144.94588644 11.35303307 144.97106361 C7.55371424 144.99535086 3.75518286 144.99450862 -0.04418945 144.98754883 C-1.1680455 145.00035889 -2.29190155 145.01316895 -3.44981384 145.02636719 C-9.61039991 144.98518911 -13.29235416 144.66380425 -17.96875 140.51757812 C-21.31893826 136.70529493 -22.0920863 133.52765312 -22.11592102 128.52763367 C-22.12307632 127.49723969 -22.13023163 126.4668457 -22.13760376 125.40522766 C-22.14029266 124.27529892 -22.14298157 123.14537018 -22.14575195 121.98120117 C-22.15560875 120.19546692 -22.15560875 120.19546692 -22.16566467 118.37365723 C-22.18541056 114.42554364 -22.19706428 110.47744333 -22.20703125 106.52929688 C-22.21107964 105.16892794 -22.21519659 103.80855921 -22.21938133 102.44819069 C-22.23842706 96.05697875 -22.25265974 89.66577832 -22.2609933 83.27454346 C-22.27076577 75.90196207 -22.29708777 68.5296809 -22.33749419 61.15720528 C-22.36767086 55.45518481 -22.3824636 49.75325034 -22.38577431 44.05115157 C-22.38812294 40.64708586 -22.39705832 37.24334111 -22.42223549 33.83936119 C-22.44652273 30.04004237 -22.44568049 26.24151098 -22.4387207 22.44213867 C-22.45153076 21.31828262 -22.46434082 20.19442657 -22.47753906 19.03651428 C-22.43755916 13.05518527 -22.24813352 9.08720352 -17.96875 4.51757812 C-12.56577931 -0.54138023 -7.00132363 -0.05023438 0 0 Z " fill="#0052FF" transform="translate(269.96875,247.482421875)"/>
</svg>
