<?xml version="1.0" encoding="UTF-8"?>
<svg version="1.1" xmlns="http://www.w3.org/2000/svg" width="512" height="512">
<path d="M0 0 C168.96 0 337.92 0 512 0 C512 168.96 512 337.92 512 512 C343.04 512 174.08 512 0 512 C0 343.04 0 174.08 0 0 Z " fill="#9886E5" transform="translate(0,0)"/>
<path d="M0 0 C0.79019531 0.71800781 1.58039063 1.43601562 2.39453125 2.17578125 C3.29816406 2.98660156 4.20179688 3.79742187 5.1328125 4.6328125 C25.99562257 24.34138688 35.41146158 52.9646608 36.39453125 81.17578125 C36.4217627 81.94067871 36.44899414 82.70557617 36.47705078 83.49365234 C38.00743986 133.51523753 21.66857857 186.51214896 -10.60546875 225.17578125 C-11.04117187 225.6980127 -11.476875 226.22024414 -11.92578125 226.75830078 C-21.39892957 237.94534107 -32.12641454 246.2692294 -45.60546875 252.17578125 C-46.31703125 252.51609375 -47.02859375 252.85640625 -47.76171875 253.20703125 C-55.57987838 256.45457448 -66.23075781 256.60391873 -74.33984375 254.44921875 C-79.99612748 251.83371913 -82.65075733 248.08520409 -85.35546875 242.67578125 C-87.3626365 237.03401243 -86.84827857 231.07516059 -86.60546875 225.17578125 C-87.22292969 226.07039062 -87.84039062 226.965 -88.4765625 227.88671875 C-96.63396047 239.58770469 -105.1952063 249.47138104 -116.60546875 258.17578125 C-117.3840625 258.78164063 -118.16265625 259.3875 -118.96484375 260.01171875 C-130.48186424 268.55286482 -145.08818204 276.33034858 -159.60546875 277.17578125 C-160.65863281 277.25183594 -161.71179688 277.32789063 -162.796875 277.40625 C-173.60510536 277.84522313 -182.406218 275.43797477 -190.60546875 268.17578125 C-198.82321297 258.02317133 -199.52531071 246.71137491 -198.60546875 234.17578125 C-198.14275707 231.03962431 -197.49232948 228.224365 -196.60546875 225.17578125 C-197.16234375 225.99820313 -197.71921875 226.820625 -198.29296875 227.66796875 C-205.84164062 238.74413532 -214.04328442 248.98066847 -223.24707031 258.73388672 C-224.50799226 260.07231321 -225.75649314 261.4224119 -227.00390625 262.7734375 C-244.89626482 281.52772032 -270.21036225 296.46274671 -296.4765625 297.4609375 C-298.60268086 297.50190286 -300.72904057 297.53179094 -302.85546875 297.55078125 C-303.86134033 297.56471924 -304.86721191 297.57865723 -305.90356445 297.59301758 C-317.69328095 297.51833159 -326.6998262 294.26163928 -335.546875 286.46484375 C-346.14246683 275.61752079 -347.98987768 259.86263555 -347.89868164 245.4375 C-346.92797363 186.13606489 -310.91131281 129.0177497 -271.80078125 86.58203125 C-269.98088234 84.58726661 -268.2172369 82.56245319 -266.45703125 80.515625 C-262.12519472 75.55521577 -257.51303634 70.89144535 -252.85546875 66.23828125 C-251.96657959 65.35019775 -251.07769043 64.46211426 -250.16186523 63.54711914 C-245.01670697 58.44995412 -239.86976551 53.59640846 -234.14453125 49.15625 C-231.74063549 47.28121131 -229.43900556 45.31591539 -227.14160156 43.31274414 C-213.37512005 31.36903897 -198.3176073 21.35694916 -182.60546875 12.17578125 C-181.93306152 11.77907227 -181.2606543 11.38236328 -180.56787109 10.97363281 C-129.96740188 -18.77081645 -50.42291755 -43.06434915 0 0 Z " fill="#FEFCF7" transform="translate(411.60546875,117.82421875)"/>
<path d="M0 0 C6.04341669 3.16056147 10.25601382 8.40866647 12.40234375 14.84765625 C14.2506819 23.80498726 13.93229035 33.4606349 8.91015625 41.30859375 C5.41506824 45.22688657 1.18427592 49.30399953 -4.08984375 50.30859375 C-12.248007 50.3911384 -16.89598435 48.42817735 -22.77734375 42.68359375 C-28.30689063 35.54869455 -29.14672086 26.01021527 -28.08984375 17.30859375 C-26.10506867 10.34053929 -22.3814062 4.65970979 -16.46484375 0.43359375 C-11.09331434 -1.35691605 -5.45011528 -1.80312225 0 0 Z " fill="#9987E5" transform="translate(387.08984375,177.69140625)"/>
<path d="M0 0 C5.69034719 2.63442 10.25341455 7.64346673 13.1484375 13.20703125 C14.27161877 16.89085973 14.38339019 20.43246265 14.375 24.25 C14.37258301 25.38453613 14.37258301 25.38453613 14.37011719 26.54199219 C14.24107869 32.42462957 13.2593637 37.00909934 10 42 C9.4225 42.928125 8.845 43.85625 8.25 44.8125 C4.23041451 48.72043034 -0.33445631 51.17657329 -6 51.5 C-11.48692297 51.15572248 -15.91735926 49.12410925 -19.765625 45.19921875 C-26.70654278 36.52307152 -26.84780826 26.63021121 -26 16 C-24.36720667 9.20013917 -19.4440532 5.0653644 -14 1 C-9.8118613 -1.09406935 -4.56095004 -0.41898491 0 0 Z " fill="#9987E5" transform="translate(322,177)"/>
</svg>
