<?xml version="1.0" encoding="UTF-8"?>
<svg version="1.1" xmlns="http://www.w3.org/2000/svg" width="225" height="225">
<path d="M0 0 C74.25 0 148.5 0 225 0 C225 74.25 225 148.5 225 225 C150.75 225 76.5 225 0 225 C0 150.75 0 76.5 0 0 Z " fill="#FCFCFC" transform="translate(0,0)"/>
<path d="M0 0 C9.38350541 0.47712739 18.16136153 3.21704373 25.8125 8.74609375 C29.80270436 11.2977307 32.38131255 11.25126069 36.94995117 10.37158203 C37.77084229 10.18708496 38.5917334 10.00258789 39.4375 9.8125 C41.21185277 9.48422588 42.98796658 9.16534323 44.765625 8.85546875 C45.64669922 8.70126465 46.52777344 8.54706055 47.43554688 8.38818359 C57.8511007 6.81157177 68.13996199 7.82178173 78.3815918 10.02001953 C86.00782042 11.61959063 90.36437471 9.52110543 97 6.0625 C109.32641754 -0.29401974 109.32641754 -0.29401974 114.3125 -0.125 C115.529375 -0.08375 116.74625 -0.0425 118 0 C121.38963186 8.93813639 122.18034975 17.87013114 120.125 27.25 C119.96325812 32.10225639 121.61441332 34.03169754 124.43359375 37.83203125 C132.01919047 48.33079978 131.55227923 64.13717856 129.61767578 76.42919922 C126.89898634 88.79502642 120.59531743 99.78315607 110 107 C101.02600138 112.1768373 92.11556081 114.40501531 82 116 C82 119.64832986 83.13254911 120.91152352 85 124 C87.18504503 129.21589798 87.32466871 133.95844711 87.37890625 139.51953125 C87.39590073 140.41870773 87.4128952 141.31788422 87.43040466 142.24430847 C87.48330292 145.10030208 87.52375612 147.95628208 87.5625 150.8125 C87.60640535 153.6865009 87.65301461 156.56038903 87.70530701 159.43424988 C87.7373146 161.21924829 87.76418886 163.00434729 87.78553772 164.789505 C87.46527426 168.7106891 87.46527426 168.7106891 89 172 C94.5033809 172.43832237 98.62784448 171.33466843 103.5625 169.0625 C104.25359863 168.75038574 104.94469727 168.43827148 105.65673828 168.11669922 C117.10000184 162.7834845 126.94803544 155.8260998 136 147 C136.86625 146.175 137.7325 145.35 138.625 144.5 C139.40875 143.675 140.1925 142.85 141 142 C141.87011719 141.12214844 141.87011719 141.12214844 142.7578125 140.2265625 C154.77583252 127.54872961 162.08675347 111.32907538 166.8125 94.6875 C167.0197168 93.95877686 167.22693359 93.23005371 167.44042969 92.47924805 C168.82344242 87.33259823 169.51281006 82.30670332 170 77 C170.33 77 170.66 77 171 77 C171 109.67 171 142.34 171 176 C96.75 176 22.5 176 -54 176 C-54 143.33 -54 110.66 -54 77 C-53.67 77 -53.34 77 -53 77 C-52.77957031 78.52753906 -52.77957031 78.52753906 -52.5546875 80.0859375 C-48.04631297 109.31529056 -34.87457774 135.98126411 -11.16552734 154.42724609 C6.90077064 167.73445538 6.90077064 167.73445538 28 172 C30.56136221 169.43863779 30.29666857 168.33438669 30.4140625 164.7734375 C30.45273438 163.7421875 30.49140625 162.7109375 30.53125 161.6484375 C30.5621875 160.56820312 30.593125 159.48796875 30.625 158.375 C30.66367188 157.28703125 30.70234375 156.1990625 30.7421875 155.078125 C30.83666247 152.38558835 30.92222431 149.69306243 31 147 C29.96488281 147.15984375 28.92976563 147.3196875 27.86328125 147.484375 C17.70810435 148.83976767 7.03970593 148.96981148 -1.625 142.75 C-6.05400384 138.61416899 -8.45679433 132.91617085 -11.10546875 127.55859375 C-13.94933154 121.98291253 -17.360006 118.49730717 -22.609375 115.2109375 C-23.29773437 114.61152344 -23.29773437 114.61152344 -24 114 C-24 113.01 -24 112.02 -24 111 C-20.82912985 109.41456493 -18.52009516 109.65934563 -15 110 C-8.9233697 112.61096061 -5.00255967 116.89726031 -1 122 C3.1370195 127.22418974 6.31467407 131.21724642 13 133 C18.94529869 133.52943536 24.52418227 133.62083966 30 131 C31.72346347 128.25563741 31.72346347 128.25563741 32.75 125 C34.86466165 119.13533835 34.86466165 119.13533835 37 117 C35.45892578 116.65388672 35.45892578 116.65388672 33.88671875 116.30078125 C18.53374193 112.73464098 3.78168276 107.45693662 -5.48046875 93.8203125 C-13.12433522 79.84967655 -15.62478566 62.41886834 -11.375 47.0625 C-10.10415373 43.02729154 -8.38825374 40.17148223 -5.86328125 36.83984375 C-2.16889603 31.45125773 -2.39983673 26.8441767 -2.8125 20.5 C-3.21388366 12.95795152 -2.97502306 7.02171188 0 0 Z " fill="#010101" transform="translate(54,49)"/>
<path d="M0 0 C74.25 0 148.5 0 225 0 C225 33.99 225 67.98 225 103 C224.67 103 224.34 103 224 103 C223.84144531 102.01902344 223.68289062 101.03804688 223.51953125 100.02734375 C219.97473248 79.09864251 212.64472495 60.41118121 199 44 C198.29101562 43.13890625 197.58203125 42.2778125 196.8515625 41.390625 C183.48214644 25.84928215 167.07436257 15.87564232 148 9 C147.18015625 8.68289063 146.3603125 8.36578125 145.515625 8.0390625 C120.9304987 -1.02333807 89.57035883 2.31000107 66.02734375 13.02734375 C38.46373325 26.24168242 16.82679678 48.96267161 6.52734375 78.015625 C3.89775656 85.87358204 2.04433743 93.7699976 1 102 C0.67 102 0.34 102 0 102 C0 68.34 0 34.68 0 0 Z " fill="#000000" transform="translate(0,0)"/>
</svg>
