<svg viewBox="0 0 24 24" width="24" height="24" fill="#cfe7ff" xmlns="http://www.w3.org/2000/svg">
  <path d="M12 .5a11.5 11.5 0 0 0-3.64 22.42c.58.1.79-.25.79-.56v-2.1c-3.2.7-3.87-1.39-3.87-1.39-.53-1.34-1.3-1.7-1.3-1.7-1.06-.74.08-.73.08-.73 1.18.09 1.8 1.22 1.8 1.22 1.04 1.78 2.74 1.27 3.4.97.1-.76.41-1.27.75-1.56-2.55-.29-5.23-1.28-5.23-5.7 0-1.26.45-2.28 1.2-3.09-.12-.3-.52-1.51.11-3.15 0 0 .97-.31 3.18 1.18a11.07 11.07 0 0 1 5.8 0C17.8 4.5 18.77 4.8 18.77 4.8c.63 1.64.23 2.85.11 3.15.75.81 1.2 1.83 1.2 3.09 0 4.43-2.69 5.4-5.25 5.69.42.36.8 1.06.8 2.14v3.17c0 .31.2.67.8.56A11.5 11.5 0 0 0 12 .5Z"></path>
</svg>
