<svg xmlns="http://www.w3.org/2000/svg" width="300" height="300" viewBox="0 0 512 512" preserveAspectRatio="xMidYMid meet">
  <defs>
    <linearGradient id="edge" x1="0" y1="0" x2="1" y2="1">
      <stop stop-color="#36C2FF"/>
      <stop offset="1" stop-color="#FF5BD5"/>
    </linearGradient>
    <filter id="glow" x="-30%" y="-30%" width="160%" height="160%">
      <feGaussianBlur stdDeviation="6" result="b"/>
      <feMerge><feMergeNode in="b"/><feMergeNode in="SourceGraphic"/></feMerge>
    </filter>
    <style>
      .eyes { transform-origin: 256px 256px; animation: blink 6s infinite; }
      @keyframes blink { 0%,94%,100% { transform: scaleY(1); } 96%,98% { transform: scaleY(0.12); } }
    </style>
  </defs>

  <path d="M481.875,299.344L512,292.219l-4.656-19.641l-24.25,5.734c0-0.328,0.016-0.641,0.016-0.969
		c0-38.078-10.531-72.781-28.969-102.359c15.438-53.938-13.438-124.547-13.438-124.547S387.813,73,357.719,100.297
		C327.109,91.063,292.578,88.094,256,88.094c-36.766,0-71.484,2.563-102.203,11.781c-30.156-27.109-82.5-49.438-82.5-49.438
		S42.406,121.063,57.859,175c-18.422,29.578-28.984,64.281-28.984,102.344c0,0.328,0.031,0.641,0.031,0.969l-24.25-5.734L0,292.219
		l30.109,7.125c2.672,23.578,9.672,44.75,20.234,63.422L12.875,377.75l7.484,18.75l41.203-16.484
		c39.797,53.141,111.969,81.547,194.438,81.547c82.453,0,154.641-28.406,194.438-81.547l41.203,16.484l7.484-18.75l-37.469-14.984
		C472.219,344.094,479.219,322.922,481.875,299.344z"
        fill="#08172a" stroke="url(#edge)" stroke-width="10" filter="url(#glow)"/>

  <g class="eyes">
    <circle cx="200" cy="250" r="18" fill="#fff"/>
    <circle cx="312" cy="250" r="18" fill="#fff"/>
  </g>

  <!-- Nose -->
  <circle cx="256" cy="294" r="5" fill="#fff"/>
</svg>
