<?xml version="1.0" encoding="UTF-8"?>
<svg version="1.1" xmlns="http://www.w3.org/2000/svg" width="225" height="225">
<path d="M0 0 C74.25 0 148.5 0 225 0 C225 74.25 225 148.5 225 225 C150.75 225 76.5 225 0 225 C0 150.75 0 76.5 0 0 Z " fill="#FEFEFE" transform="translate(0,0)"/>
<path d="M0 0 C6.69007175 1.85069494 12.92315235 4.16781707 19.24609375 7.01171875 C51.09204306 20.74029334 88.36585218 28.83614069 122 15.625 C125.00787742 14.30515062 127.96113931 12.91372002 130.90625 11.45947266 C136.78052402 8.6882913 142.90744082 6.54820572 149 4.3125 C150.16015625 3.86664551 151.3203125 3.42079102 152.515625 2.96142578 C153.58296875 2.55778809 154.6503125 2.15415039 155.75 1.73828125 C156.69359375 1.37774658 157.6371875 1.01721191 158.609375 0.64575195 C161 0 161 0 164 1 C165.83239746 4.70498626 166.96771098 8.70027967 168.25 12.625 C168.62640625 13.70652344 169.0028125 14.78804687 169.390625 15.90234375 C171.31976928 21.71105391 172.55131529 25.92750908 171 32 C170.65674409 33.71078747 170.32152051 35.4231966 169.9921875 37.13671875 C169.43138529 39.93476382 168.86587459 42.7314047 168.28515625 45.52539062 C168.10597656 46.42837891 167.92679688 47.33136719 167.7421875 48.26171875 C167.49251221 49.48314575 167.49251221 49.48314575 167.23779297 50.72924805 C166.98615555 53.1322046 167.33547675 54.69970439 168 57 C168 60.10551666 167.4606285 61.35261084 166 64 C166.66 64.33 167.32 64.66 168 65 C166.79618552 67.49361571 165.54571278 69.68143083 164 72 C164.66 72.33 165.32 72.66 166 73 C164.69300071 75.97045293 163.55889359 77.43138505 161.1640625 79.7734375 C159.17697042 82.53750815 158.95667611 83.66798979 159.40405273 87.09643555 C160.47259647 90.814947 161.71939294 94.4372748 163.0625 98.0625 C163.50497928 99.32772178 163.94446268 100.5939955 164.38085938 101.86132812 C165.1949775 104.19927651 166.02240071 106.5326654 166.86743164 108.85961914 C167.2411792 109.89594482 167.61492676 110.93227051 168 112 C168.37946777 113.03455322 168.75893555 114.06910645 169.14990234 115.13500977 C172.00898073 124.77064585 166.8319681 135.92440853 163.9375 145.125 C163.45941709 146.66900191 162.98219647 148.2132711 162.50585938 149.7578125 C161.34715735 153.50836354 160.1768486 157.25510534 159 161 C151.87925497 159.67676124 144.91641324 157.99325161 137.9375 156.0625 C137.00873047 155.81048828 136.07996094 155.55847656 135.12304688 155.29882812 C126.31780035 152.88279206 118.00411191 150.25482196 109.875 146.0625 C109.21113281 145.72798828 108.54726562 145.39347656 107.86328125 145.04882812 C103.48407626 142.82494614 99.27803247 140.44458998 95 138 C95.99 145.92 95.99 145.92 97 154 C96.34 153.67 95.68 153.34 95 153 C92.99144648 152.90280009 90.979653 152.86923467 88.96875 152.8671875 C87.16470703 152.86525391 87.16470703 152.86525391 85.32421875 152.86328125 C83.43123047 152.86908203 83.43123047 152.86908203 81.5 152.875 C80.23800781 152.87113281 78.97601563 152.86726562 77.67578125 152.86328125 C76.47308594 152.86457031 75.27039063 152.86585938 74.03125 152.8671875 C72.92330078 152.86831543 71.81535156 152.86944336 70.67382812 152.87060547 C68.02681484 152.81848531 68.02681484 152.81848531 66 154 C66.66 148.72 67.32 143.44 68 138 C66.96101563 138.51949219 65.92203125 139.03898438 64.8515625 139.57421875 C56.4765625 143.76171875 56.4765625 143.76171875 54.25292969 144.8581543 C52.77821976 145.60557718 51.31914054 146.38488474 49.87988281 147.19848633 C42.3153991 151.34066963 34.2554455 153.4315771 25.97460938 155.6496582 C23.4749245 156.31921665 20.97947059 157.00300922 18.484375 157.68945312 C16.89605453 158.12320663 15.30752041 158.5561787 13.71875 158.98828125 C12.97298706 159.19133377 12.22722412 159.39438629 11.4588623 159.60359192 C6.23704863 161 6.23704863 161 4 161 C2.3929991 155.90204688 0.80905799 150.79768172 -0.75463867 145.6862793 C-1.28883963 143.9512966 -1.82910954 142.21816974 -2.37573242 140.48706055 C-3.16397775 137.98699113 -3.92958208 135.48088527 -4.69140625 132.97265625 C-4.93717911 132.20977798 -5.18295197 131.44689972 -5.43617249 130.66090393 C-7.71980395 122.98927809 -6.72410693 116.43519339 -4.22265625 108.8984375 C-3.87396484 107.83109375 -3.52527344 106.76375 -3.16601562 105.6640625 C-2.80185547 104.57867187 -2.43769531 103.49328125 -2.0625 102.375 C-1.00667261 99.17163105 0.04706562 95.96779837 1.08789062 92.75952148 C1.6353555 91.10320577 2.20514108 89.45367111 2.81835938 87.82055664 C3.57753819 85.83554682 3.57753819 85.83554682 4 83 C2.75976276 80.54009159 2.75976276 80.54009159 0.625 78.6875 C-0.60442808 77.47943264 -1.81778179 76.25430469 -3 75 C-3 73 -3 73 -1 71 C-1.66 70.38125 -2.32 69.7625 -3 69.125 C-5 67 -5 67 -5 65 C-4.01 64.505 -4.01 64.505 -3 64 C-3.9977758 61.00667261 -4.7522025 60.05233685 -7 58 C-6.01 57.34 -5.02 56.68 -4 56 C-5.04551449 47.7957863 -6.36061504 39.9302266 -8.51171875 31.9375 C-9.36874275 26.78164362 -7.86856206 22.23181027 -6.15234375 17.3828125 C-5.79462891 16.36445312 -5.43691406 15.34609375 -5.06835938 14.296875 C-4.50858398 12.72679687 -4.50858398 12.72679687 -3.9375 11.125 C-3.37192383 9.52011719 -3.37192383 9.52011719 -2.79492188 7.8828125 C-1.86766216 5.25362039 -0.93505707 2.62642517 0 0 Z " fill="#EF7F1B" transform="translate(31,25)"/>
<path d="M0 0 C0.99 0.33 1.98 0.66 3 1 C4.83239746 4.70498626 5.96771098 8.70027967 7.25 12.625 C7.62640625 13.70652344 8.0028125 14.78804687 8.390625 15.90234375 C10.31976928 21.71105391 11.55131529 25.92750908 10 32 C9.65674409 33.71078747 9.32152051 35.4231966 8.9921875 37.13671875 C8.43138529 39.93476382 7.86587459 42.7314047 7.28515625 45.52539062 C7.10597656 46.42837891 6.92679687 47.33136719 6.7421875 48.26171875 C6.5757373 49.07600342 6.40928711 49.89028809 6.23779297 50.72924805 C5.98615555 53.1322046 6.33547675 54.69970439 7 57 C7 60.10551666 6.4606285 61.35261084 5 64 C5.66 64.33 6.32 64.66 7 65 C5.79618552 67.49361571 4.54571278 69.68143083 3 72 C3.66 72.33 4.32 72.66 5 73 C3.33248852 76.94139078 0.77289351 79.7892812 -2 83 C-21.65967574 79.42995224 -41.58192684 75.5415179 -55.58496094 60.46240234 C-57.68481213 58.29226628 -60.03010434 56.50224933 -62.4375 54.6875 C-63.13746094 54.15511719 -63.83742187 53.62273437 -64.55859375 53.07421875 C-65.03425781 52.71972656 -65.50992188 52.36523438 -66 52 C-64.55861965 48.52347807 -62.83595422 46.81279526 -59.84375 44.56640625 C-58.57144531 43.60347656 -58.57144531 43.60347656 -57.2734375 42.62109375 C-56.35820312 41.94175781 -55.44296875 41.26242188 -54.5 40.5625 C-53.08074219 39.49515625 -53.08074219 39.49515625 -51.6328125 38.40625 C-45.09537467 33.50755329 -38.48809474 28.70933829 -31.84326172 23.95776367 C-23.11776646 17.69656568 -14.61145222 11.14571204 -6.09619141 4.60302734 C-5.40444824 4.07402832 -4.71270508 3.5450293 -4 3 C-3.31212402 2.41557129 -2.62424805 1.83114258 -1.91552734 1.22900391 C-1.28340332 0.82343262 -0.6512793 0.41786133 0 0 Z " fill="#763D16" transform="translate(192,25)"/>
<path d="M0 0 C2.86253357 1.34716818 5.34286804 2.87773056 7.87890625 4.765625 C8.6251123 5.31847168 9.37131836 5.87131836 10.14013672 6.44091797 C10.9395166 7.03791504 11.73889648 7.63491211 12.5625 8.25 C14.28505054 9.52878824 16.00770974 10.80743012 17.73046875 12.0859375 C18.60880371 12.73916992 19.48713867 13.39240234 20.39208984 14.06542969 C22.83483258 15.87747738 25.28447352 17.67953793 27.73828125 19.4765625 C38.90064409 27.65376511 49.96295138 35.95880284 60.92480469 44.40332031 C62.64229702 45.72477912 64.37055551 47.03223198 66.1015625 48.3359375 C66.72804688 48.88507813 67.35453125 49.43421875 68 50 C68 50.66 68 51.32 68 52 C65.51226841 54.26837249 62.86110169 56.2911143 60.2109375 58.3671875 C58.05772843 60.07917578 56.23534375 61.77787797 54.2890625 63.7578125 C44.84592717 73.04571821 33.73067246 75.88102716 21.12011719 79.17578125 C19.03454306 79.72671226 16.95669107 80.30772212 14.88769531 80.91796875 C13.91670898 81.20285156 12.94572266 81.48773438 11.9453125 81.78125 C11.08695801 82.03970703 10.22860352 82.29816406 9.34423828 82.56445312 C6.81297893 83.03474751 5.39485505 82.89750137 3 82 C1.296875 80.44140625 1.296875 80.44140625 -0.25 78.5625 C-0.77078125 77.94503906 -1.2915625 77.32757813 -1.828125 76.69140625 C-3 75 -3 75 -3 73 C-2.01 72.01 -2.01 72.01 -1 71 C-1.66 70.38125 -2.32 69.7625 -3 69.125 C-5 67 -5 67 -5 65 C-4.01 64.505 -4.01 64.505 -3 64 C-3.9977758 61.00667261 -4.7522025 60.05233685 -7 58 C-6.01 57.34 -5.02 56.68 -4 56 C-5.04551449 47.7957863 -6.36061504 39.9302266 -8.51171875 31.9375 C-9.36874275 26.78164362 -7.86856206 22.23181027 -6.15234375 17.3828125 C-5.79462891 16.36445312 -5.43691406 15.34609375 -5.06835938 14.296875 C-4.50858398 12.72679687 -4.50858398 12.72679687 -3.9375 11.125 C-3.37192383 9.52011719 -3.37192383 9.52011719 -2.79492188 7.8828125 C-1.86766315 5.2536232 -0.93590193 2.62612238 0 0 Z " fill="#763D16" transform="translate(31,25)"/>
<path d="M0 0 C4.43178521 42.15499945 4.43178521 42.15499945 -1 59 C-4.36199314 58.44574517 -7.67669195 57.75143439 -11 57 C-11.86496094 56.8246875 -12.72992188 56.649375 -13.62109375 56.46875 C-20.43223277 54.60656638 -24.79855628 50.8994307 -29.75 46.0625 C-30.38325195 45.4530957 -31.01650391 44.84369141 -31.66894531 44.21582031 C-35.95467436 39.80116125 -35.95467436 39.80116125 -36.14453125 36.4453125 C-34.68540513 33.32786216 -32.91988713 30.62700025 -30.9375 27.8125 C-28.05496234 24.22286982 -28.05496234 24.22286982 -27 20 C-26.071875 19.54625 -25.14375 19.0925 -24.1875 18.625 C-18.41120798 15.34434733 -13.82442675 10.50563203 -9 6 C-2.37401575 0 -2.37401575 0 0 0 Z " fill="#E3751A" transform="translate(99,77)"/>
<path d="M0 0 C4.50222439 2.4642857 8.16432868 5.57309172 12 8.9375 C19.24430874 15.2937482 19.24430874 15.2937482 27 21 C28.24609375 22.953125 28.24609375 22.953125 29.4375 25.25 C30.93840629 28.0921417 32.4653254 30.7288226 34.375 33.3125 C36 36 36 36 35.74584961 37.97900391 C33.34169605 44.49343375 25.75151518 51.08846502 19.67041016 54.18701172 C13.81652221 56.58568373 7.36532891 59 1 59 C-4.77381592 41.09429707 -3.3635996 18.34433734 0 0 Z " fill="#E3751A" transform="translate(126,77)"/>
<path d="M0 0 C0.66 0 1.32 0 2 0 C1.67 4.95 1.34 9.9 1 15 C1.33 14.67 1.66 14.34 2 14 C3.98792033 13.91239737 5.97892216 13.89303612 7.96875 13.90234375 C9.17917969 13.90556641 10.38960937 13.90878906 11.63671875 13.91210938 C12.91160156 13.92048828 14.18648437 13.92886719 15.5 13.9375 C16.77488281 13.94201172 18.04976562 13.94652344 19.36328125 13.95117188 C22.57556314 13.96314524 25.78775879 13.98021269 29 14 C29.33 14 29.66 14 30 14 C29.67 9.38 29.34 4.76 29 0 C32.14141327 1.25656531 35.1624703 2.50437526 38.20703125 3.9453125 C38.95791016 4.29980469 39.70878906 4.65429688 40.48242188 5.01953125 C41.25134766 5.38433594 42.02027344 5.74914062 42.8125 6.125 C43.60076172 6.49753906 44.38902344 6.87007812 45.20117188 7.25390625 C47.13473705 8.16795524 49.06745388 9.08379842 51 10 C51 11.32 51 12.64 51 14 C49.03290166 15.8441547 47.17119895 17.37260716 45 18.9375 C44.44699219 19.35451172 43.89398438 19.77152344 43.32421875 20.20117188 C42.17099981 21.05879561 41.00323362 21.89713146 39.82324219 22.7175293 C38.61096242 23.57024831 37.42773537 24.46587794 36.27832031 25.40161133 C29.96542265 30.11939614 23.39128449 29.84762337 15.75 29.8125 C14.50347656 29.85697266 13.25695312 29.90144531 11.97265625 29.94726562 C2.17037202 29.97287243 -3.46542867 27.0964586 -11 21 C-11.61713867 20.5356958 -12.23427734 20.0713916 -12.87011719 19.59301758 C-14.19016236 18.59649167 -15.47325839 17.55143427 -16.75 16.5 C-17.56984375 15.8296875 -18.3896875 15.159375 -19.234375 14.46875 C-19.81703125 13.9840625 -20.3996875 13.499375 -21 13 C-20 10 -20 10 -18.15820312 8.84912109 C-17.37380859 8.49414551 -16.58941406 8.13916992 -15.78125 7.7734375 C-14.50701172 7.185625 -14.50701172 7.185625 -13.20703125 6.5859375 C-12.31371094 6.18632812 -11.42039062 5.78671875 -10.5 5.375 C-8.73884352 4.57193297 -6.97838774 3.76732688 -5.21875 2.9609375 C-4.43435547 2.60821777 -3.64996094 2.25549805 -2.84179688 1.89208984 C-1.02904981 1.13843234 -1.02904981 1.13843234 0 0 Z " fill="#BDAA9C" transform="translate(97,163)"/>
<path d="M0 0 C5.09049582 0.11809221 10.18079005 0.24232913 15.27099609 0.37231445 C17.00337626 0.4156808 18.73579963 0.45735463 20.46826172 0.49731445 C22.95553627 0.55497594 25.44259293 0.61868198 27.9296875 0.68359375 C28.70682098 0.70030624 29.48395447 0.71701874 30.28463745 0.73423767 C35.77225659 0.88612829 35.77225659 0.88612829 38 2 C38.48452463 8.94485303 36.69287491 15.2990368 35 22 C31.63800686 21.44574517 28.32330805 20.75143439 25 20 C24.13503906 19.8246875 23.27007812 19.649375 22.37890625 19.46875 C13.12570752 16.93890072 5.75266662 9.504138 0 2 C0 1.34 0 0.68 0 0 Z " fill="#CD6116" transform="translate(63,114)"/>
<path d="M0 0 C-2.93326235 6.96649808 -9.52266209 13.75989139 -16.27783203 17.13964844 C-22.14501606 19.51595886 -28.63225051 22 -35 22 C-38.44419134 8.3667426 -38.44419134 8.3667426 -38 2 C-35.0896473 0.54482365 -32.44639926 0.77833355 -29.19921875 0.68359375 C-28.52582962 0.66281265 -27.85244049 0.64203156 -27.15864563 0.62062073 C-25.00170147 0.55521151 -22.84463145 0.49637236 -20.6875 0.4375 C-19.24543033 0.39429131 -17.80337278 0.35067627 -16.36132812 0.30664062 C-5.11289819 -0.0286181 -5.11289819 -0.0286181 0 0 Z " fill="#CC6116" transform="translate(162,114)"/>
<path d="M0 0 C1.53333984 -0.00386719 1.53333984 -0.00386719 3.09765625 -0.0078125 C4.16886719 -0.00007812 5.24007812 0.00765625 6.34375 0.015625 C7.41496094 0.00789062 8.48617187 0.00015625 9.58984375 -0.0078125 C10.61207031 -0.00523437 11.63429688 -0.00265625 12.6875 0 C13.62787109 0.00225586 14.56824219 0.00451172 15.53710938 0.00683594 C17.84375 0.265625 17.84375 0.265625 19.84375 2.265625 C20.31034731 4.99032286 20.67974254 7.64742302 20.96875 10.390625 C21.05511719 11.14472656 21.14148438 11.89882812 21.23046875 12.67578125 C21.44264261 14.53819627 21.64420763 16.40181431 21.84375 18.265625 C21.18375 17.935625 20.52375 17.605625 19.84375 17.265625 C17.83519648 17.16842509 15.823403 17.13485967 13.8125 17.1328125 C12.60980469 17.13152344 11.40710938 17.13023437 10.16796875 17.12890625 C8.90597656 17.13277344 7.64398438 17.13664062 6.34375 17.140625 C5.08175781 17.13675781 3.81976563 17.13289063 2.51953125 17.12890625 C1.31683594 17.13019531 0.11414063 17.13148438 -1.125 17.1328125 C-2.23294922 17.13394043 -3.34089844 17.13506836 -4.48242188 17.13623047 C-7.12943516 17.08411031 -7.12943516 17.08411031 -9.15625 18.265625 C-8.87505143 15.63911069 -8.58181162 13.01493165 -8.28125 10.390625 C-8.20261719 9.64425781 -8.12398438 8.89789063 -8.04296875 8.12890625 C-7.29707734 1.76014113 -6.46255828 0.01550305 0 0 Z " fill="#161615" transform="translate(106.15625,160.734375)"/>
<path d="M0 0 C7.26 0 14.52 0 22 0 C16.36666977 10.13999441 16.36666977 10.13999441 13.703125 14.03515625 C13.13722656 14.86337891 12.57132813 15.69160156 11.98828125 16.54492188 C11.41464844 17.37572266 10.84101563 18.20652344 10.25 19.0625 C9.66089844 19.92810547 9.07179687 20.79371094 8.46484375 21.68554688 C5.23690993 26.38645739 5.23690993 26.38645739 4 28 C3.67 28 3.34 28 3 28 C2.49595781 24.08384244 1.99746767 20.1669977 1.5 16.25 C1.35691406 15.13882813 1.21382812 14.02765625 1.06640625 12.8828125 C0.93105469 11.81289062 0.79570312 10.74296875 0.65625 9.640625 C0.53056641 8.65610352 0.40488281 7.67158203 0.27539062 6.65722656 C0 4 0 4 0 0 Z " fill="#CD6116" transform="translate(146,147)"/>
<path d="M0 0 C7.26 0 14.52 0 22 0 C21.690625 3.320625 21.38125 6.64125 21.0625 10.0625 C20.96718994 11.09511963 20.87187988 12.12773926 20.77368164 13.19165039 C20.30616166 18.15253031 19.75822405 23.07495909 19 28 C15.92888169 25.11479191 13.61940967 22.14471615 11.328125 18.61328125 C10.66425781 17.59298828 10.00039062 16.57269531 9.31640625 15.52148438 C8.29353516 13.93303711 8.29353516 13.93303711 7.25 12.3125 C6.55261719 11.24193359 5.85523438 10.17136719 5.13671875 9.06835938 C0 1.14213093 0 1.14213093 0 0 Z " fill="#CD6116" transform="translate(57,147)"/>
<path d="M0 0 C2.46203927 3.69305891 2.67943111 7.0138559 3.125 11.3125 C3.21136719 12.05951172 3.29773438 12.80652344 3.38671875 13.57617188 C3.84716024 17.73841675 4.0933588 21.80552229 4 26 C0.70196547 24.57680215 -2.58715421 23.13406244 -5.875 21.6875 C-7.28072266 21.08131836 -7.28072266 21.08131836 -8.71484375 20.46289062 C-9.61074219 20.06650391 -10.50664062 19.67011719 -11.4296875 19.26171875 C-12.67081299 18.71970825 -12.67081299 18.71970825 -13.93701172 18.16674805 C-16 17 -16 17 -18 14 C-15.37748931 11.85110957 -12.75157805 9.70641627 -10.125 7.5625 C-9.00544922 6.64500977 -9.00544922 6.64500977 -7.86328125 5.70898438 C-7.14785156 5.12568359 -6.43242187 4.54238281 -5.6953125 3.94140625 C-5.03547363 3.40201416 -4.37563477 2.86262207 -3.69580078 2.30688477 C-2 1 -2 1 0 0 Z " fill="#E3761A" transform="translate(145,148)"/>
<path d="M0 0 C6.68364774 4.26203624 12.87987207 8.96590729 19 14 C16.8277725 17.25834124 15.89739125 17.7473418 12.4296875 19.26171875 C11.53378906 19.65810547 10.63789062 20.05449219 9.71484375 20.46289062 C8.77769531 20.86701172 7.84054688 21.27113281 6.875 21.6875 C5.93011719 22.10322266 4.98523438 22.51894531 4.01171875 22.94726562 C1.6778116 23.97277028 -0.65937241 24.9899511 -3 26 C-2.76407433 23.13000002 -2.52655175 20.26017156 -2.28515625 17.390625 C-2.10208425 15.21382366 -1.92212587 13.03675694 -1.74609375 10.859375 C-1.66488281 9.89515625 -1.58367187 8.9309375 -1.5 7.9375 C-1.4278125 7.05964844 -1.355625 6.18179688 -1.28125 5.27734375 C-1 3 -1 3 0 0 Z " fill="#E4761A" transform="translate(79,148)"/>
<path d="M0 0 C0.66 0 1.32 0 2 0 C1.49656013 7.02673515 0.95812032 14.01940909 0 21 C-7.44379088 18.76686274 -14.11976695 15.59727921 -21 12 C-18.85946382 9.64900142 -16.9120312 8.30260953 -14.0234375 6.9921875 C-13.270625 6.64542969 -12.5178125 6.29867187 -11.7421875 5.94140625 C-10.57042969 5.41353516 -10.57042969 5.41353516 -9.375 4.875 C-7.81948754 4.16586932 -6.2647562 3.45502185 -4.7109375 2.7421875 C-4.02306152 2.4313623 -3.33518555 2.12053711 -2.62646484 1.80029297 C-1.00214073 1.10956684 -1.00214073 1.10956684 0 0 Z " fill="#D5BEAF" transform="translate(97,163)"/>
<path d="M0 0 C4.6789096 1.79670129 9.2084415 3.88622235 13.75 6 C14.52988281 6.35578125 15.30976563 6.7115625 16.11328125 7.078125 C17.22509766 7.59632813 17.22509766 7.59632813 18.359375 8.125 C19.03452148 8.43695313 19.70966797 8.74890625 20.40527344 9.0703125 C22 10 22 10 23 12 C19.87797994 13.50626117 16.75191601 15.00393243 13.625 16.5 C12.73554688 16.92925781 11.84609375 17.35851562 10.9296875 17.80078125 C9.65351563 18.40986328 9.65351563 18.40986328 8.3515625 19.03125 C7.56604004 19.40830078 6.78051758 19.78535156 5.97119141 20.17382812 C4 21 4 21 2 21 C1.66280953 18.43795456 1.33012847 15.87545682 1 13.3125 C0.90460938 12.59126953 0.80921875 11.87003906 0.7109375 11.12695312 C0.23316265 7.39007129 -0.11919794 3.77708469 0 0 Z " fill="#D5BEAF" transform="translate(126,163)"/>
<path d="M0 0 C1.64585742 1.40583655 3.28717372 2.81730783 4.90625 4.25390625 C6.96466702 6.04387948 6.96466702 6.04387948 9.28125 7.46484375 C11.75773509 9.17832727 13.36025775 10.45752731 15 13 C15.37919415 17.79785935 14.83906644 22.27369609 14 27 C10.43919012 22.47209688 7.96506672 17.4679281 5.3125 12.375 C4.80138672 11.40820312 4.29027344 10.44140625 3.76367188 9.4453125 C3.28091797 8.52234375 2.79816406 7.599375 2.30078125 6.6484375 C1.85903564 5.80458496 1.41729004 4.96073242 0.9621582 4.09130859 C0 2 0 2 0 0 Z " fill="#E4751E" transform="translate(64,117)"/>
<path d="M0 0 C0.33 0.66 0.66 1.32 1 2 C-0.07983398 4.52197266 -0.07983398 4.52197266 -1.74609375 7.6640625 C-2.33583984 8.78554687 -2.92558594 9.90703125 -3.53320312 11.0625 C-4.16779771 12.25009141 -4.80256561 13.43759023 -5.4375 14.625 C-6.06909016 15.81992652 -6.69995906 17.01523457 -7.33007812 18.2109375 C-8.87964362 21.14446608 -10.43654853 24.07385522 -12 27 C-12.33 27 -12.66 27 -13 27 C-15.17071114 14.77279116 -15.17071114 14.77279116 -12.49609375 10.72265625 C-10.41403058 8.9803605 -8.2631733 7.49680774 -6 6 C-4.8044583 4.88432747 -3.63433039 3.74035386 -2.5 2.5625 C-1.675 1.716875 -0.85 0.87125 0 0 Z " fill="#E4751E" transform="translate(160,117)"/>
<path d="M0 0 C2.94678433 2.94678433 4.32041919 5.24093818 6 9 C6 9.66 6 10.32 6 11 C3.35149716 10.38490238 0.70660095 9.75850592 -1.9375 9.125 C-3.06961914 8.86396484 -3.06961914 8.86396484 -4.22460938 8.59765625 C-6.16593545 8.12755935 -8.08549544 7.5695703 -10 7 C-10.33 6.34 -10.66 5.68 -11 5 C-7.37 3.35 -3.74 1.7 0 0 Z " fill="#283645" transform="translate(91,125)"/>
<path d="M0 0 C3.96 1.65 7.92 3.3 12 5 C9.38832897 7.61167103 7.0278941 8.07131482 3.5 9.125 C1.75203125 9.65480469 1.75203125 9.65480469 -0.03125 10.1953125 C-3 11 -3 11 -5 11 C-3.72322719 6.7768284 -2.32785375 3.87975626 0 0 Z " fill="#223445" transform="translate(133,125)"/>
<path d="M0 0 C0.33 0 0.66 0 1 0 C1 12.21 1 24.42 1 37 C0.67 37 0.34 37 0 37 C-2.03365898 28.38280095 -3.6315768 20.8354032 -2 12 C-1.82726562 10.91847656 -1.65453125 9.83695313 -1.4765625 8.72265625 C-1.00762146 5.8104644 -0.514029 2.90451339 0 0 Z " fill="#E4751E" transform="translate(101,116)"/>
<path d="M0 0 C0.33 0 0.66 0 1 0 C3.5230947 13.07508487 4.56443422 24.07664104 1 37 C0.67 37 0.34 37 0 37 C0 24.79 0 12.58 0 0 Z " fill="#E4751E" transform="translate(123,116)"/>
<path d="M0 0 C0.33 0 0.66 0 1 0 C1 1.65 1 3.3 1 5 C9.91 5 18.82 5 28 5 C28 3.35 28 1.7 28 0 C28.33 0 28.66 0 29 0 C29.33 2.64 29.66 5.28 30 8 C29.34 7.67 28.68 7.34 28 7 C25.99144648 6.90280009 23.979653 6.86923467 21.96875 6.8671875 C20.76605469 6.86589844 19.56335938 6.86460937 18.32421875 6.86328125 C17.06222656 6.86714844 15.80023438 6.87101563 14.5 6.875 C13.23800781 6.87113281 11.97601563 6.86726562 10.67578125 6.86328125 C9.47308594 6.86457031 8.27039063 6.86585938 7.03125 6.8671875 C5.92330078 6.86831543 4.81535156 6.86944336 3.67382812 6.87060547 C1.02681484 6.81848531 1.02681484 6.81848531 -1 8 C-0.67 5.36 -0.34 2.72 0 0 Z " fill="#08070A" transform="translate(98,171)"/>
</svg>
